# xmcd
# 
# Track frame offsets:
#     150
#     3970
#     40115
#     60965
#     96835
#     102472
#     124420
#     176837
# 
# Disc length: 2471
# 
# Revision: 7
# Processed by: cddbd v1.5.2PL0 Copyright (c) Steve Scherf et al.
# Submitted via: fre:ac v1.0.27
# 
DISCID=6209a508
DTITLE=King Crimson - In the Wake of Poseidon
DYEAR=1970
DGENRE=ProgRock
TTITLE0=Peace- A Beginning
TTITLE1=Pictures of a City
TTITLE2=Cadence and Cascade
TTITLE3=In the Wake of Poseidon
TTITLE4=Peace - A Theme
TTITLE5=Cat Food
TTITLE6=The Devil's Triangle: Merday Morn - Hand of Sceiron - Garden of Worm
TTITLE7=Peace - An End
EXTD=YEAR: 1970
EXTT0=
EXTT1=
EXTT2=
EXTT3=
EXTT4=
EXTT5=
EXTT6=
EXTT7=
PLAYORDER=
